<svg xmlns="http://www.w3.org/2000/svg" xmlns:xlink="http://www.w3.org/1999/xlink" width="204.094" height="73.701" version="1.1" viewBox="0 0 204.094 73.701"><defs><clipPath id="clip_0"><path d="M0 73.701H204.094V0H0Z" transform="matrix(1,0,0,-1,0,73.7008)"/></clipPath><clipPath id="clip_1"><path d="M0 73.701H204.094V0H0Z" transform="matrix(1,0,0,-1,0,73.7008)"/></clipPath><clipPath id="clip_2"><path d="M0 0H204.094V73.7008H0Z" transform="matrix(1,0,0,-1,0,73.7008)"/></clipPath></defs><g><g><g clip-path="url(#clip_0)"><path fill="#c1cd23" d="M0 0V0-37.526C0-39.419-.745-40.631-2.969-40.631-5.197-40.631-5.938-39.419-5.938-37.526V0H-17.141V-37.19C-17.141-48.059-11.944-49.408-2.969-49.408 6.008-49.408 11.202-48.059 11.202-37.19V-27.059H22.437V-18.288H11.202V-8.767H22.437V0Z" transform="matrix(1,0,0,-1,31.3249,13.690197)"/><path fill="#231f20" d="M0 0C-.107 1.918-.957 2.975-2.697 2.975-4.716 2.975-5.782 2.082-5.782 .392-5.782-1.407-4.39-2.066-3.232-2.65-2.198-3.172-1.304-3.622-1.304-4.737-1.304-5.788-1.82-6.319-2.829-6.319-4.211-6.319-4.488-5.522-4.488-4.236V-4.096H-5.954L-5.955-4.234C-5.967-5.381-5.713-6.191-5.193-6.721-4.689-7.227-3.939-7.476-2.888-7.476-.936-7.476 .142-6.44 .142-4.561 .142-2.718-1.198-2.059-2.378-1.477-3.385-.983-4.338-.552-4.338 .489-4.338 1.24-3.783 1.763-2.985 1.763-1.743 1.763-1.479 1.145-1.424 0Z" transform="matrix(1,0,0,-1,64.7675,17.587899)"/><path fill="#231f20" d="M0 0-1.053-.067C-1.856-.067-1.977 .121-1.977 1.4V7.531H0V8.743H-1.977V11.336L-3.422 10.708V8.743H-4.99V7.531H-3.422V.679C-3.422-.731-2.751-1.357-1.248-1.357L0-1.291Z" transform="matrix(1,0,0,-1,71.3271,23.549)"/><path fill="#231f20" d="M73.374 61.341H75.093V63.099H73.374Z" transform="matrix(1,0,0,-1,0,73.7008)"/><path fill="#231f20" d="M73.509 48.83H74.953V58.895H73.509Z" transform="matrix(1,0,0,-1,0,73.7008)"/><path fill="#231f20" d="M0 0-1.054-.067C-1.857-.067-1.979 .121-1.979 1.4V7.531H0V8.743H-1.979V11.336L-3.423 10.708V8.743H-4.992V7.531H-3.423V.679C-3.423-.731-2.752-1.357-1.249-1.357L0-1.291Z" transform="matrix(1,0,0,-1,99.2706,23.549)"/><path fill="#231f20" d="M101.478 61.341H103.19299V63.099H101.478Z" transform="matrix(1,0,0,-1,0,73.7008)"/><path fill="#231f20" d="M101.611 48.83H103.057V58.895H101.611Z" transform="matrix(1,0,0,-1,0,73.7008)"/><path fill="#231f20" d="M0 0C.05 1.015-.193 1.942-.714 2.492-1.213 3.009-1.958 3.286-2.869 3.286-4.433 3.286-5.471 2.616-5.948 1.296-6.196 .572-6.249-.888-6.249-1.989-6.249-4.412-6.249-7.165-2.792-7.165-2.411-7.165-1.443-7.086-.739-6.354-.198-5.79 .058-4.979 .022-3.94L.017-3.802H-1.417L-1.423-3.934C-1.48-5.078-1.637-5.95-3.062-5.95-4.724-5.95-4.724-3.752-4.724-1.989-4.724-.712-4.611 .622-4.46 1.049-4.235 1.688-3.696 2.074-3.026 2.074-2.504 2.074-2.108 1.935-1.847 1.662-1.546 1.351-1.412 .688-1.443 0Z" transform="matrix(1,0,0,-1,83.7556,17.898598)"/><path fill="#231f20" d="M0 0V-14.269H1.445V-7.985C1.445-5.49 2.819-5.223 3.412-5.223 4.856-5.223 5.072-6.516 5.072-7.287V-14.269H6.519V-7.227C6.519-6.434 6.519-4.01 3.703-4.01 2.827-4.01 2.069-4.424 1.445-5.203V0Z" transform="matrix(1,0,0,-1,86.1019,10.602299)"/><path fill="#231f20" d="M0 0V.999H-1.445V-9.066H0V-2.782C0-.287 1.376-.02 1.967-.02 3.41-.02 3.627-1.313 3.627-2.084V-9.066H5.071V-2.024C5.071-1.231 5.071 1.193 2.258 1.193 1.381 1.193 .626 .779 0 0" transform="matrix(1,0,0,-1,107.3416,15.805298)"/><path fill="#231f20" d="M0 0C0 1.324 0 3.788 1.909 3.788 2.899 3.788 3.956 3.08 3.956 1.102 3.956-1.698 3.888-2.159 3.598-2.914 3.444-3.323 2.886-3.929 1.969-3.929 0-3.929 0-2.018 0 0M-1.172-6.168C-1.199-6.445-1.215-7.418-.518-8.173 .012-8.745 .796-9.032 1.814-9.032 4.966-9.032 5.402-7.319 5.402-5.464V2.768L5.464 4.826H4.036V3.874C3.536 4.558 2.688 5 1.737 5-.235 5-.991 3.52-1.151 2.956-1.35 2.259-1.446 1.821-1.446-.407-1.446-2.697-1.203-5.142 1.698-5.142 2.653-5.142 3.446-4.776 3.958-4.162V-4.692C3.958-6.04 3.922-6.944 3.467-7.401 3.181-7.688 2.705-7.82 1.969-7.82 1.415-7.82 .937-7.639 .629-7.31 .365-7.027 .264-6.612 .248-6.168Z" transform="matrix(1,0,0,-1,116.1039,19.612698)"/><path fill="#231f20" d="M0 0-1.051-.067C-1.854-.067-1.978 .121-1.978 1.4V7.531H0V8.743H-1.978V11.336L-3.42 10.708V8.743H-4.988V7.531H-3.42V.679C-3.42-.731-2.751-1.357-1.245-1.357L0-1.291Z" transform="matrix(1,0,0,-1,120.8657,41.591699)"/><path fill="#231f20" d="M112.057 43.298H113.773V45.056H112.057Z" transform="matrix(1,0,0,-1,0,73.7008)"/><path fill="#231f20" d="M112.192 30.787H113.638V40.852H112.192Z" transform="matrix(1,0,0,-1,0,73.7008)"/><path fill="#231f20" d="M0 0-1.051-.067C-1.856-.067-1.975 .121-1.975 1.4V7.531H0V8.743H-1.975V11.336L-3.42 10.708V8.743H-4.987V7.531H-3.42V.679C-3.42-.731-2.749-1.357-1.245-1.357L0-1.291Z" transform="matrix(1,0,0,-1,140.9015,41.591699)"/><path fill="#231f20" d="M132.243 43.298H133.963V45.056H132.243Z" transform="matrix(1,0,0,-1,0,73.7008)"/><path fill="#231f20" d="M132.379 30.787H133.826V40.852H132.379Z" transform="matrix(1,0,0,-1,0,73.7008)"/><path fill="#231f20" d="M0 0C-.107 1.918-.957 2.975-2.695 2.975-4.714 2.975-5.781 2.082-5.781 .392-5.781-1.407-4.39-2.066-3.233-2.65-2.196-3.172-1.303-3.622-1.303-4.737-1.303-5.788-1.815-6.319-2.827-6.319-4.209-6.319-4.49-5.522-4.49-4.236V-4.096H-5.953L-5.956-4.234C-5.965-5.381-5.713-6.191-5.193-6.721-4.689-7.227-3.937-7.476-2.887-7.476-.935-7.476 .14-6.44 .14-4.561 .14-2.718-1.197-2.059-2.378-1.477-3.386-.983-4.335-.552-4.335 .489-4.335 1.24-3.78 1.763-2.987 1.763-1.742 1.763-1.477 1.145-1.422 0Z" transform="matrix(1,0,0,-1,109.6384,35.630598)"/><path fill="#231f20" d="M0 0C-.112 1.918-.961 2.975-2.698 2.975-4.718 2.975-5.784 2.082-5.784 .392-5.784-1.407-4.391-2.066-3.234-2.65-2.2-3.172-1.308-3.622-1.308-4.737-1.308-5.788-1.821-6.319-2.83-6.319-4.212-6.319-4.491-5.522-4.491-4.236V-4.096H-5.953L-5.955-4.234C-5.97-5.381-5.718-6.191-5.194-6.721-4.693-7.227-3.936-7.476-2.888-7.476-.935-7.476 .138-6.44 .138-4.561 .138-2.718-1.197-2.059-2.383-1.477-3.386-.983-4.341-.552-4.341 .489-4.341 1.24-3.784 1.763-2.987 1.763-1.747 1.763-1.478 1.145-1.426 0Z" transform="matrix(1,0,0,-1,189.7724,35.630598)"/><path fill="#231f20" d="M0 0C-.109 1.918-.955 2.975-2.697 2.975-4.714 2.975-5.782 2.082-5.782 .392-5.782-1.407-4.39-2.066-3.234-2.65-2.201-3.172-1.304-3.622-1.304-4.737-1.304-5.788-1.819-6.319-2.829-6.319-4.212-6.319-4.486-5.522-4.486-4.236V-4.096H-5.953V-4.234C-5.964-5.381-5.716-6.191-5.193-6.721-4.692-7.227-3.936-7.476-2.888-7.476-.935-7.476 .138-6.44 .138-4.561 .138-2.718-1.197-2.059-2.379-1.477-3.386-.983-4.337-.552-4.337 .489-4.337 1.24-3.778 1.763-2.987 1.763-1.745 1.763-1.476 1.145-1.423 0Z" transform="matrix(1,0,0,-1,148.5619,35.630598)"/><path fill="#231f20" d="M76.568 43.298H78.285V45.056H76.568Z" transform="matrix(1,0,0,-1,0,73.7008)"/><path fill="#231f20" d="M76.703 30.787H78.149V40.852H76.703Z" transform="matrix(1,0,0,-1,0,73.7008)"/><path fill="#231f20" d="M0 0V.999H-1.445V-9.066H0V-2.782C0-.287 1.374-.02 1.969-.02 3.413-.02 3.629-1.313 3.629-2.084V-9.066H5.076V-2.024C5.076-1.231 5.076 1.193 2.26 1.193 1.383 1.193 .63 .779 0 0" transform="matrix(1,0,0,-1,69.2297,33.848)"/><path fill="#231f20" d="M0 0V.999H-1.444V-9.066H0V-2.782C0-.287 1.377-.02 1.971-.02 3.412-.02 3.627-1.313 3.627-2.084V-9.066H5.077V-2.024C5.077-1.231 5.077 1.193 2.259 1.193 1.383 1.193 .63 .779 0 0" transform="matrix(1,0,0,-1,167.3326,33.848)"/><path fill="#231f20" d="M0 0V-7.035C0-7.568-.47-9.042-1.99-9.042-2.379-9.042-2.699-8.923-2.936-8.684-3.183-8.434-3.477-7.919-3.473-6.889V0H-4.918V-7.053C-4.918-9.149-3.98-10.258-2.199-10.258-1.24-10.258-.541-9.915 .156-9.149V-10.065H1.448V0Z" transform="matrix(1,0,0,-1,63.7297,32.8489)"/><path fill="#231f20" d="M0 0C0 0-2.082-7.498-2.295-8.239-2.503-7.497-4.551 0-4.551 0H-6.107L-3.116-10.065H-1.57L1.42 0Z" transform="matrix(1,0,0,-1,86.1244,32.8489)"/><path fill="#231f20" d="M0 0C1.695 0 2.048-1.122 2.061-3.183H-2.064C-2.047-1.122-1.698 0 0 0M3.51-4.396C3.51-1.462 3.51 1.212 0 1.212-2.332 1.212-3.512-.225-3.512-3.053V-5.453C-3.382-7.941-2.332-9.239 0-9.239 2.236-9.239 3.385-8.156 3.51-5.924V-5.778H2.009V-5.921C2.019-6.585 1.832-7.128 1.474-7.496 1.125-7.845 .627-8.023 0-8.023-1.706-8.023-2.067-6.383-2.067-5.012V-4.396Z" transform="matrix(1,0,0,-1,92.6218,33.867498)"/><path fill="#231f20" d="M0 0C1.697 0 2.049-1.122 2.063-3.183H-2.064C-2.046-1.122-1.695 0 0 0M3.509-4.396C3.509-1.462 3.509 1.212 0 1.212-2.33 1.212-3.512-.225-3.512-3.053V-5.453C-3.381-7.941-2.33-9.239 0-9.239 2.235-9.239 3.383-8.156 3.509-5.924V-5.778H2.009V-5.921C2.019-6.585 1.833-7.128 1.475-7.496 1.126-7.845 .628-8.023 0-8.023-1.71-8.023-2.066-6.383-2.066-5.012V-4.396Z" transform="matrix(1,0,0,-1,126.2424,33.867498)"/><path fill="#231f20" d="M0 0C-1.083 0-2.031-.491-2.591-1.273V-.194H-4.035V-10.259H-2.591V-3.821C-2.591-3.061-2.352-2.434-1.891-2.015-1.435-1.591-.786-1.402-.015-1.463L.138-1.475V0Z" transform="matrix(1,0,0,-1,102.2928,32.655199)"/><path fill="#231f20" d="M0 0V-1.506H-1.571V-2.717H0V-11.571H1.445V-2.717H3.415V-1.506H1.445V.022C1.445 .739 1.519 1.448 2.421 1.448H3.436V2.693L3.091 2.745 2.636 2.776C0 2.776 0 .685 0 0" transform="matrix(1,0,0,-1,151.7615,31.342698)"/><path fill="#231f20" d="M0 0C0-2.954-.308-4.003-2.063-4.003-3.819-4.003-4.127-2.954-4.127 0-4.127 2.952-3.819 4.003-2.063 4.003-.308 4.003 0 2.952 0 0M-5.577 1.257V-1.064C-5.577-3.91-4.461-5.236-2.063-5.236 .332-5.236 1.449-3.91 1.449-1.064V1.257C1.449 2.442 1.449 5.216-2.063 5.216-5.577 5.216-5.577 2.442-5.577 1.257" transform="matrix(1,0,0,-1,162.1616,37.870798)"/><path fill="#231f20" d="M0 0C0 2.261 0 4.042 1.947 4.042 3.641 4.042 3.996 2.332 3.996 .892V-.851C3.996-2.814 3.243-3.981 1.985-3.981 .899-3.981 0-3.682 0 0M3.958 9.265V4.257C3.356 4.883 2.555 5.255 1.697 5.255-1.447 5.255-1.447 1.863-1.447 .039-1.447-1.919-1.447-5.197 1.678-5.197 2.704-5.197 3.446-4.798 4.069-3.977 4.088-4.335 4.12-5.004 4.12-5.004H5.544L5.514-4.836C5.481-4.638 5.403-4.059 5.403-2.923V9.265Z" transform="matrix(1,0,0,-1,176.1765,37.91)"/><path fill="#231f20" d="M0 0-1.051-.067C-1.855-.067-1.974 .121-1.974 1.4V7.531H0V8.743H-1.974V11.336L-3.418 10.708V8.743H-4.989V7.531H-3.418V.679C-3.418-.731-2.749-1.357-1.243-1.357L0-1.291Z" transform="matrix(1,0,0,-1,63.2669,59.613199)"/><path fill="#231f20" d="M0 0-1.054-.067C-1.857-.067-1.977 .121-1.977 1.4V7.531H0V8.743H-1.977V11.336L-3.423 10.708V8.743H-4.99V7.531H-3.423V.679C-3.423-.731-2.75-1.357-1.248-1.357L0-1.291Z" transform="matrix(1,0,0,-1,101.3736,59.613199)"/><path fill="#231f20" d="M0 0V.999H-1.445V-9.066H0V-2.782C0-.287 1.377-.02 1.968-.02 3.412-.02 3.629-1.313 3.629-2.084V-9.066H5.073V-2.024C5.073-1.231 5.073 1.193 2.26 1.193 1.383 1.193 .626 .779 0 0" transform="matrix(1,0,0,-1,89.6501,51.8695)"/><path fill="#231f20" d="M0 0C1.693 0 2.048-1.122 2.063-3.183H-2.063C-2.049-1.122-1.7 0 0 0M3.512-4.396C3.512-1.462 3.512 1.212 0 1.212-2.332 1.212-3.511-.225-3.511-3.053V-5.453C-3.382-7.941-2.332-9.239 0-9.239 2.234-9.239 3.383-8.156 3.51-5.924V-5.778H2.008V-5.921C2.017-6.585 1.832-7.128 1.472-7.496 1.127-7.845 .631-8.023 0-8.023-1.709-8.023-2.065-6.383-2.065-5.012V-4.396Z" transform="matrix(1,0,0,-1,82.3352,51.8891)"/><path fill="#231f20" d="M0 0C1.697 0 2.047-1.122 2.064-3.183H-2.063C-2.048-1.122-1.694 0 0 0M3.512-4.396C3.512-1.462 3.512 1.212 0 1.212-2.329 1.212-3.51-.225-3.51-3.053V-5.453C-3.383-7.941-2.329-9.239 0-9.239 2.234-9.239 3.384-8.156 3.512-5.924V-5.778H2.008V-5.921C2.018-6.585 1.834-7.128 1.474-7.496 1.129-7.845 .63-8.023 0-8.023-1.707-8.023-2.067-6.383-2.067-5.012V-4.396Z" transform="matrix(1,0,0,-1,106.5087,51.8891)"/><path fill="#231f20" d="M0 0C0 0-1.864-7.693-2.076-8.525-2.282-7.693-4.209 0-4.209 0H-5.771C-5.771 0-7.527-7.664-7.73-8.515-7.943-7.668-9.801 0-9.801 0H-11.321L-8.583-10.065H-6.928C-6.928-10.065-5.187-2.574-4.986-1.736-4.772-2.574-2.951-10.065-2.951-10.065H-1.297L1.441 0Z" transform="matrix(1,0,0,-1,75.9851,50.8705)"/><path fill="#c1cd23" d="M0 0C0 .162-.002 .296-.005 .399-.008 .503-.013 .58-.019 .63-.083 1.106-.3 1.345-.673 1.345-1.083 1.345-1.323 1.094-1.393 .592-1.405 .498-1.415 .402-1.421 .306-1.427 .208-1.431 .106-1.431 0ZM-1.431-.598V-.977C-1.431-1.412-1.386-1.733-1.298-1.942-1.184-2.183-.985-2.302-.701-2.302-.24-2.302-.003-1.974 .009-1.317H.947C.916-1.886 .78-2.296 .54-2.549 .274-2.82-.139-2.956-.701-2.956-1.415-2.956-1.898-2.726-2.15-2.265-2.327-1.937-2.416-1.377-2.416-.588-2.416 .227-2.324 .823-2.141 1.202-1.875 1.752-1.377 2.026-.645 2.026 .095 2.026 .574 1.742 .795 1.174 .916 .871 .976 .28 .976-.598Z" transform="matrix(1,0,0,-1,115.3461,58.042)"/><path fill="#c1cd23" d="M0 0C0-.947-.546-1.421-1.639-1.421-2.63-1.421-3.145-.995-3.183-.143-3.189-.048-3.189 .05-3.183 .151H-2.207V.075C-2.207 .037-2.204-.007-2.198-.058-2.172-.537-1.97-.777-1.591-.777-1.181-.777-.976-.565-.976-.143-.976 .085-1.051 .271-1.203 .416-1.247 .461-1.328 .516-1.444 .582-1.562 .648-1.711 .732-1.895 .833-2.368 1.086-2.665 1.272-2.785 1.392-3 1.601-3.107 1.882-3.107 2.235-3.107 2.671-2.956 3.002-2.652 3.229-2.381 3.438-2.011 3.542-1.544 3.542-1.014 3.542-.631 3.429-.398 3.201-.164 2.974-.044 2.604-.038 2.093H-1.014V2.358C-1.064 2.737-1.257 2.927-1.591 2.927-1.951 2.927-2.131 2.737-2.131 2.358-2.131 2.156-2.043 1.985-1.866 1.847-1.822 1.815-1.74 1.763-1.62 1.69-1.5 1.618-1.339 1.527-1.137 1.421-.732 1.199-.461 1.022-.322 .89-.107 .675 0 .379 0 0" transform="matrix(1,0,0,-1,120.1767,59.557699)"/><path fill="#c1cd23" d="M0 0C-.146-.025-.348-.038-.606-.038-1.08-.038-1.402 .051-1.572 .228-1.743 .404-1.828 .729-1.828 1.203V4.102H-2.491V4.784H-1.828V5.62L-.843 6.034V4.784H-.047V4.102H-.843V1.326C-.843 1.099-.818 .941-.768 .853-.704 .732-.559 .673-.332 .673-.294 .673-.183 .683 0 .701Z" transform="matrix(1,0,0,-1,123.0849,60.903398)"/><path fill="#c1cd23" d="M123.861 13.831H124.789V12.798H123.861Z" transform="matrix(1,0,0,-1,0,73.7008)"/><path fill="#c1cd23" d="M0 0V5.561C-.252 5.302-.628 5.026-1.127 4.736V5.712C-.634 5.99-.224 6.328 .104 6.726H1.014V0Z" transform="matrix(1,0,0,-1,128.6772,60.903398)"/><path fill="#c1cd23" d="M0 0C0 .461-.047 .802-.142 1.023-.256 1.308-.464 1.449-.768 1.449-1.089 1.449-1.311 1.295-1.43 .985-1.513 .776-1.554 .438-1.554-.028-1.554-.471-1.522-.776-1.459-.947-1.352-1.282-1.13-1.449-.796-1.449-.467-1.449-.24-1.282-.114-.947-.038-.739 0-.423 0 0M.995-1.715C.995-2.794 .9-3.543 .71-3.959 .458-4.534-.057-4.821-.833-4.821-1.907-4.821-2.447-4.288-2.454-3.221H-1.44C-1.453-3.808-1.229-4.102-.768-4.102-.414-4.102-.187-3.853-.085-3.354-.022-3.063 .009-2.481 .009-1.61-.281-1.977-.657-2.16-1.118-2.16-1.667-2.16-2.056-1.961-2.283-1.562-2.472-1.234-2.567-.723-2.567-.028-2.567 1.443-1.967 2.179-.768 2.179-.047 2.179 .439 1.929 .691 1.431 .894 1.039 .995 .376 .995-.559Z" transform="matrix(1,0,0,-1,133.5932,56.195398)"/><path fill="#c1cd23" d="M0 0-1.383-3.553H0ZM.937-4.301V-5.911H-.029V-4.301H-2.179V-3.41L-.426 .814H.937V-3.553H1.648V-4.301Z" transform="matrix(1,0,0,-1,137.5717,54.9922)"/><path fill="#c1cd23" d="M0 0C0 .354-.035 .615-.104 .786-.212 1.032-.417 1.155-.72 1.155-1.212 1.155-1.459 .779-1.459 .028-1.459-.724-1.216-1.099-.729-1.099-.243-1.099 0-.732 0 0M.038-3.098C.038-2.251-.217-1.828-.725-1.828-1.24-1.828-1.497-2.248-1.497-3.088-1.497-3.935-1.243-4.357-.734-4.357-.22-4.357 .038-3.938 .038-3.098M1.07-3.136C1.07-4.43 .469-5.077-.734-5.077-1.349-5.077-1.801-4.926-2.092-4.623-2.384-4.319-2.529-3.824-2.529-3.136-2.529-2.706-2.479-2.378-2.378-2.15-2.239-1.815-1.97-1.585-1.573-1.459-2.166-1.282-2.463-.78-2.463 .047-2.463 1.272-1.885 1.885-.729 1.885 .426 1.885 1.004 1.316 1.004 .18 1.004-.735 .691-1.282 .066-1.459 .458-1.554 .729-1.753 .881-2.056 1.007-2.289 1.07-2.649 1.07-3.136" transform="matrix(1,0,0,-1,142.4311,55.9395)"/></g></g><g><g clip-path="url(#clip_1)"><g opacity="0"><g clip-path="url(#clip_2)"><path fill="#fff" d="M204.094 73.701H0V0H204.094ZM204.094 73.7H204.093L204.094 .001 .001 0 0 73.7Z" transform="matrix(1,0,0,-1,0,73.7008)"/></g></g></g></g></g></svg>