<svg width="175" height="201" viewBox="0 0 175 201" fill="none" xmlns="http://www.w3.org/2000/svg">
<g clip-path="url(#clip0_992_26253)">
<circle cx="87.5" cy="87.5" r="85.3125" fill="#003249" stroke="#36D1FE" stroke-width="4.375"/>
<path d="M103.906 7C107.703 7 110.919 9.48114 112.025 12.9102L121.131 11.4609C122.545 12.0875 123.94 12.7512 125.312 13.4531L112.437 15.502C112.437 15.5117 112.438 15.5215 112.438 15.5312C112.438 18.6327 110.782 21.3464 108.307 22.8398L115.355 40.1113C116.1 39.9165 116.882 39.8125 117.688 39.8125C119.358 39.8125 120.924 40.2607 122.273 41.04L140.893 23.7891C141.567 24.3549 142.233 24.931 142.889 25.5176L124.358 42.6865C125.917 44.3329 126.875 46.5539 126.875 49C126.875 51.6322 125.766 54.0037 123.992 55.6787L135.729 73.1152C136.985 72.387 138.443 71.9688 140 71.9688C143.217 71.9688 146.017 73.7502 147.471 76.3799L167.73 65.6768C167.966 66.5437 168.185 67.4169 168.393 68.2949L148.374 78.8711C148.476 79.3985 148.531 79.9428 148.531 80.5C148.531 84.7653 145.401 88.2983 141.312 88.9297V131.11C144.324 131.463 146.966 133.015 148.754 135.276L159.188 129.604C158.274 131.156 157.31 132.675 156.301 134.161L150.13 137.517C150.633 138.605 150.965 139.787 151.095 141.03C147.304 145.529 143.044 149.62 138.392 153.228C136.187 152.909 134.191 151.944 132.601 150.533L117.725 164.957C115.799 165.709 113.838 166.392 111.846 167.001L130.853 148.57C129.588 146.761 128.844 144.562 128.844 142.188C128.844 138.78 130.373 135.73 132.781 133.684L118.687 113.952C117.235 114.796 115.55 115.281 113.75 115.281C111.808 115.281 109.998 114.716 108.473 113.745L94.7734 131.454C96.7723 133.57 98 136.422 98 139.562C98 144.511 94.9551 148.746 90.6377 150.504L95.0654 170.284C94.1871 170.363 93.3049 170.428 92.4189 170.479L88.1074 151.217C87.4824 151.319 86.8414 151.375 86.1875 151.375C80.1073 151.375 75.1002 146.781 74.4473 140.875H41.4678C40.8308 145.327 37.0034 148.75 32.375 148.75C31.9846 148.75 31.6003 148.722 31.2227 148.675C28.3597 146.04 25.6812 143.207 23.2109 140.197C23.1966 139.987 23.1875 139.776 23.1875 139.562C23.1875 136.901 24.3201 134.504 26.1289 132.826L5.92871 103.571C5.54209 101.598 5.2257 99.5991 4.98145 97.5781L28.2881 131.333C28.8871 131.035 29.5231 130.801 30.1875 130.639L27.0996 98.874C22.9839 98.861 19.6136 95.6916 19.2793 91.6592L4.93945 88.2852C4.77392 88.6254 4.59086 88.9555 4.39453 89.2764C4.38215 88.6857 4.375 88.0936 4.375 87.5C4.375 84.262 4.55966 81.0673 4.91992 77.9258C5.69055 79.4948 6.125 81.2589 6.125 83.125C6.125 84.0439 6.0159 84.9373 5.81738 85.7959L19.502 89.0156C20.3816 85.627 23.4612 83.125 27.125 83.125C29.1811 83.125 31.0526 83.9136 32.4551 85.2041L47.6504 68.4502C45.9267 66.8892 44.8438 64.6336 44.8438 62.125C44.8438 57.4133 48.6633 53.5938 53.375 53.5938C53.7046 53.5938 54.0297 53.614 54.3496 53.6504L56.8262 42.5059C54.5736 41.6229 52.7876 39.8118 51.9414 37.541L16.6182 44.7881C16.6213 44.8792 16.625 44.9706 16.625 45.0625C16.625 48.1483 14.8492 50.8178 12.2646 52.1094C13.9511 48.5305 15.8839 45.0906 18.0439 41.8135L51.416 34.9697C51.4097 34.8348 51.4062 34.699 51.4062 34.5625C51.4062 29.8508 55.2258 26.0312 59.9375 26.0312C62.9746 26.0312 65.6387 27.6198 67.1504 30.0098L95.6465 17.6758C95.4691 16.9906 95.375 16.2719 95.375 15.5312C95.375 10.8196 99.1946 7 103.906 7ZM40.4619 135.2C40.9655 136.132 41.3118 137.16 41.4678 138.25H74.4473C74.839 134.706 76.7988 131.635 79.6172 129.745L75.8359 123.241C74.2023 124.027 72.3716 124.469 70.4375 124.469C66.6157 124.469 63.1974 122.748 60.9102 120.04L40.4619 135.2ZM34.9863 91.4434C34.8057 94.6983 32.6489 97.4236 29.6953 98.4434L32.8008 130.385C35.1815 130.493 37.325 131.509 38.8965 133.093L59.4336 117.866C58.4995 116.118 57.9688 114.121 57.9688 112C57.9688 105.114 63.5512 99.5312 70.4375 99.5312C71.9532 99.5312 73.4053 99.8026 74.749 100.298L81.1602 84.4697C78.8629 83.2144 77.0885 81.1252 76.2393 78.6094L34.9863 91.4434ZM121.67 99.5938C122.878 101.228 123.594 103.249 123.594 105.438C123.594 108.128 122.513 110.565 120.764 112.342L134.97 132.23C136.111 131.653 137.363 131.266 138.688 131.11V88.9297C137.463 88.7406 136.326 88.2909 135.332 87.6396L121.67 99.5938ZM82.8467 110.79C82.885 111.188 82.9062 111.592 82.9062 112C82.9062 116.011 81.0102 119.576 78.0684 121.856L81.9512 128.535C83.2665 128.03 84.6942 127.75 86.1875 127.75C88.6249 127.75 90.8894 128.489 92.7705 129.754L106.462 112.055C105.329 110.808 104.514 109.268 104.139 107.563L82.8467 110.79ZM93.1211 83.1309C91.2713 84.7596 88.8459 85.75 86.1875 85.75C85.296 85.75 84.431 85.6368 83.6045 85.4277L77.1074 101.467C79.5544 103.02 81.4242 105.399 82.3203 108.215L103.918 104.942C104.039 102.497 105.055 100.288 106.642 98.6309L93.1211 83.1309ZM94.584 68.9453C95.9044 70.7011 96.6875 72.884 96.6875 75.25C96.6875 77.4362 96.0182 79.4655 94.875 81.1465L108.695 96.9893C110.173 96.1033 111.902 95.5938 113.75 95.5938C116.05 95.5938 118.164 96.3851 119.84 97.707L133.371 85.8682C132.182 84.402 131.469 82.5347 131.469 80.5C131.469 78.295 132.305 76.2847 133.678 74.7705L121.846 57.1914C120.597 57.8266 119.185 58.1875 117.688 58.1875C114.881 58.1875 112.37 56.9277 110.685 54.9443L94.584 68.9453ZM60.0566 67.4258C58.4938 69.3931 56.0828 70.6562 53.375 70.6562C52.1272 70.6562 50.9433 70.3857 49.875 69.9043L34.085 87.3154C34.332 87.7811 34.5322 88.2747 34.6826 88.79L75.7188 76.0234C75.7001 75.768 75.6875 75.5102 75.6875 75.25C75.6875 74.1743 75.8489 73.1363 76.1494 72.1592L60.0566 67.4258ZM68.1963 32.416C68.374 33.1018 68.4688 33.8211 68.4688 34.5625C68.4688 39.2742 64.6492 43.0938 59.9375 43.0938C59.7534 43.0938 59.5708 43.0857 59.3896 43.0742L56.8838 54.3486C59.8449 55.6868 61.9062 58.6644 61.9062 62.125C61.9062 63.1639 61.7199 64.1593 61.3799 65.0801L77.2451 69.7461C79.094 66.7485 82.407 64.75 86.1875 64.75C88.6727 64.75 90.9546 65.6154 92.7529 67.0586L109.274 52.6924C108.778 51.5622 108.5 50.3137 108.5 49C108.5 45.6639 110.278 42.7433 112.938 41.1338L105.876 23.8311C105.243 23.9806 104.584 24.0625 103.906 24.0625C100.868 24.0625 98.2029 22.4733 96.6914 20.082L68.1963 32.416Z" fill="#01283B"/>
</g>
<path fill-rule="evenodd" clip-rule="evenodd" d="M119.9 77.9272C119.942 77.5495 120.215 77.2399 120.579 77.1304C126.178 75.4459 130.257 70.2506 130.257 64.1026C130.257 56.5901 124.167 50.5 116.654 50.5C109.142 50.5 103.051 56.5901 103.051 64.1026C103.051 69.7597 106.505 74.6102 111.418 76.6611C111.807 76.8232 112.056 77.2151 112.007 77.633C111.263 83.9597 109.877 91.4763 107.571 99.2053C105.549 105.983 102.85 112.818 99.327 119.12C99.1876 119.369 98.8084 119.28 98.7862 118.995C98.3629 113.585 96.8046 107.511 94.9346 101.564C93.4406 96.8121 91.687 91.962 90.0536 87.4441L90.052 87.4397C89.6358 86.2885 89.2274 85.1588 88.833 84.0579C88.6185 83.459 88.4087 82.8699 88.2041 82.2909C88.0103 81.7426 88.3789 81.1585 88.9494 81.0457C95.3587 79.7789 100.192 74.1267 100.192 67.3457C100.192 59.6328 93.9391 53.3803 86.2263 53.3803C78.5134 53.3803 72.2609 59.6328 72.2609 67.3457C72.2609 72.2266 74.7648 76.5226 78.5582 79.0194C78.7374 79.1374 78.8737 79.3109 78.9397 79.5151C79.6846 81.8209 80.5371 84.2483 81.4199 86.7131C81.8225 87.8372 82.2335 88.9743 82.6479 90.1209L82.6524 90.1334L82.6567 90.1453L82.6582 90.1493L82.6608 90.1565L82.6657 90.1701L82.6673 90.1747C84.2974 94.6849 85.9802 99.3409 87.4219 103.926C89.2411 109.712 90.5821 115.104 90.9346 119.61C90.9712 120.078 90.9965 120.528 91.0108 120.961C91.0268 121.443 90.6467 121.84 90.1651 121.873C86.8203 122.098 83.4902 122.654 80.4746 123.566C80.1804 123.656 79.8603 123.596 79.6265 123.397C73.6297 118.279 69.3037 109.864 66.3799 100.281C63.9625 92.3589 62.6397 84.0823 62.044 77.2078C62.0086 76.7992 62.256 76.4224 62.634 76.2633C67.2006 74.3404 70.4067 69.8232 70.4067 64.5572C70.4067 57.5455 64.7226 51.8614 57.7109 51.8614C50.6992 51.8614 45.0151 57.5455 45.0151 64.5572C45.0151 70.0964 48.5625 74.8071 53.5093 76.5413C53.8642 76.6657 54.1225 76.9804 54.1534 77.3552C54.7678 84.8168 56.1873 93.8615 58.8477 102.58C60.6132 108.366 62.9925 114.225 66.1849 119.415C66.6578 120.184 65.8769 121.134 65.0601 120.749C56.0578 116.514 48.743 110.015 43.0615 102.812C36.6263 94.6532 32.4355 85.7768 30.3316 78.6869C30.21 78.2772 30.4001 77.8439 30.7642 77.6201C34.008 75.6257 36.1711 72.0438 36.1711 67.9566C36.1711 61.6962 31.096 56.6211 24.8355 56.6211C18.5751 56.6211 13.5 61.6962 13.5 67.9566C13.5 73.1344 16.9715 77.5013 21.7139 78.8569C22.0376 78.9494 22.296 79.1969 22.3839 79.5218C24.6582 87.9229 29.4742 98.3011 36.8789 107.689C46.006 119.26 59.3161 129.632 77.0633 132.74C77.3406 132.789 77.5832 132.961 77.7133 133.211C78.0112 133.782 78.3162 134.391 78.6391 135.035C79.4311 136.615 80.3311 138.411 81.5 140.404C81.6396 140.642 81.6657 140.93 81.5691 141.188C79.1396 147.687 76.9266 154.425 75.5279 162.012L75.5107 162.123C74.295 169.961 72.5527 181.193 82.152 191.782C83.1879 192.864 84.2965 193.852 85.4996 194.759C88.0912 197.166 91.2946 198.231 94.6315 197.327C97.9552 196.446 101.14 193.669 103.258 190C105.377 186.331 106.189 182.184 105.29 178.865C104.404 175.526 101.883 173.285 98.5064 172.243C98.502 172.242 98.4973 172.242 98.4929 172.244C98.3089 172.31 98.1309 172.374 97.9454 172.425C97.867 172.446 97.7909 172.477 97.7162 172.509C95.6324 173.399 91.5951 168.523 90.527 162.174C89.5653 157.468 89.4254 152.325 89.5623 147.048C89.5693 146.777 89.7011 146.521 89.9146 146.355C98.4031 139.723 102.301 135.203 104.108 132.122C104.228 131.918 104.42 131.764 104.647 131.695C119.442 127.245 130.227 119.238 137.84 110.142C146.406 99.9062 150.877 88.3933 152.651 79.2442C152.718 78.8989 152.976 78.6257 153.312 78.5197C158.085 77.0117 161.545 72.5481 161.545 67.2763C161.545 60.7655 156.267 55.4874 149.756 55.4874C143.245 55.4874 137.967 60.7655 137.967 67.2763C137.967 71.7884 140.502 75.7084 144.225 77.69C144.597 77.8877 144.812 78.2992 144.724 78.7107C143.06 86.5076 139.135 96.3234 131.801 105.087C126.243 111.728 118.683 117.82 108.537 121.976C107.759 122.295 107.029 121.455 107.418 120.71C110.702 114.421 113.216 107.833 115.118 101.457C117.633 93.0291 119.124 84.8272 119.9 77.9272ZM83.4996 183C83.4996 178.858 86.8577 175.5 90.9996 175.5C95.1417 175.5 98.4996 178.858 98.4996 183C98.4996 187.142 95.1417 190.5 90.9996 190.5C86.8577 190.5 83.4996 187.142 83.4996 183Z" fill="#36D1FE"/>
<defs>
<clipPath id="clip0_992_26253">
<rect width="175" height="175" fill="white"/>
</clipPath>
</defs>
</svg>
