<svg xmlns="http://www.w3.org/2000/svg" xmlns:xlink="http://www.w3.org/1999/xlink" width="243.6" height="78.3" version="1.1" viewBox="0 0 243.6 78.3"><defs><clipPath id="clip_0"><path d="M0 0H243.6V78.3H0Z" transform="matrix(1,0,0,-1,0,78.3)"/></clipPath></defs><g clip-path="url(#clip_0)"><text fill="#3e8ab0" font-family="RescueW01" font-size="16" font-weight="bold" transform="matrix(1.45 0 0 1.45 5901.5 1606.6001)" xml:space="preserve"><tspan x="-4066.64" y="-1092">B</tspan></text><text fill="#3e8ab0" font-family="RescueW01" font-size="16" font-weight="bold" transform="matrix(1.45 0 0 1.45 5901.5 1606.6001)" xml:space="preserve"><tspan x="-4045.78" y="-1092">A</tspan></text><text fill="#3e8ab0" font-family="RescueW01" font-size="16" font-weight="bold" transform="matrix(1.45 0 0 1.45 5901.5 1606.6001)" xml:space="preserve"><tspan x="-4021.848" y="-1092">S</tspan></text><text fill="#3e8ab0" font-family="RescueW01" font-size="16" font-weight="bold" transform="matrix(1.45 0 0 1.45 5901.5 1606.6001)" xml:space="preserve"><tspan x="-4000.788" y="-1092">E</tspan></text><text fill="#3e8ab0" font-family="RescueW01" font-size="16" font-weight="bold" transform="matrix(1.45 0 0 1.45 5901.5 1606.6001)" xml:space="preserve"><tspan x="-3981.032" y="-1092">T</tspan></text><text fill="#3e8ab0" font-family="RescueW01" font-size="16" font-weight="bold" transform="matrix(1.45 0 0 1.45 5901.5 1606.6001)" xml:space="preserve"><tspan x="-3958.476" y="-1092">I</tspan></text><text fill="#3e8ab0" font-family="RescueW01" font-size="16" font-weight="bold" transform="matrix(1.45 0 0 1.45 5901.5 1606.6001)" xml:space="preserve"><tspan x="-3938.312" y="-1092">D</tspan></text><text fill="#3e8ab0" font-family="RescueW01" font-size="16" font-weight="bold" transform="matrix(1.45 0 0 1.45 5901.5 1606.6001)" xml:space="preserve"><tspan x="-3915.788" y="-1092">E</tspan></text><path fill="#3e8ab0" d="M1.45 36.55039H242.15V44.960359H1.45Z" transform="matrix(1,0,0,-1,0,78.3)"/><text fill="#3e8ab0" font-family="Avenir" font-size="15" transform="matrix(1.45 0 0 1.45 5901.5 1606.6001)" xml:space="preserve"><tspan x="-4064.6 -4055.435 -4050.725 -4042.385 -4029.605 -4026.005 -4017.665 -4004.885 -4000.715 -3991.55 -3983.765 -3978.785 -3971 -3966.83 -3960.44 -3951.545 -3947.945 -3939.605 -3934.625 -3931.025 -3922.13 -3913.79" y="-1064.107">premium data solutions</tspan></text></g></svg>