<svg xmlns="http://www.w3.org/2000/svg" xmlns:xlink="http://www.w3.org/1999/xlink" xmlns:inkscape="http://www.inkscape.org/namespaces/inkscape" version="1.1" width="243.6" height="78.3" viewBox="0 0 243.6 78.3">
<defs>
<clipPath id="clip_0">
<path transform="matrix(1,0,0,-1,0,78.3)" d="M0 0H243.6V78.3H0Z"/>
</clipPath>
</defs>
<g clip-path="url(#clip_0)">
<text fill="#3e8ab0" xml:space="preserve" transform="matrix(1.45 0 0 1.45 5901.5 1606.6001)" font-size="16" font-family="RescueW01" font-weight="bold"><tspan y="-1092" x="-4066.64">B</tspan></text>
<text fill="#3e8ab0" xml:space="preserve" transform="matrix(1.45 0 0 1.45 5901.5 1606.6001)" font-size="16" font-family="RescueW01" font-weight="bold"><tspan y="-1092" x="-4045.78">A</tspan></text>
<text fill="#3e8ab0" xml:space="preserve" transform="matrix(1.45 0 0 1.45 5901.5 1606.6001)" font-size="16" font-family="RescueW01" font-weight="bold"><tspan y="-1092" x="-4021.848">S</tspan></text>
<text fill="#3e8ab0" xml:space="preserve" transform="matrix(1.45 0 0 1.45 5901.5 1606.6001)" font-size="16" font-family="RescueW01" font-weight="bold"><tspan y="-1092" x="-4000.788">E</tspan></text>
<text fill="#3e8ab0" xml:space="preserve" transform="matrix(1.45 0 0 1.45 5901.5 1606.6001)" font-size="16" font-family="RescueW01" font-weight="bold"><tspan y="-1092" x="-3981.032">T</tspan></text>
<text fill="#3e8ab0" xml:space="preserve" transform="matrix(1.45 0 0 1.45 5901.5 1606.6001)" font-size="16" font-family="RescueW01" font-weight="bold"><tspan y="-1092" x="-3958.476">I</tspan></text>
<text fill="#3e8ab0" xml:space="preserve" transform="matrix(1.45 0 0 1.45 5901.5 1606.6001)" font-size="16" font-family="RescueW01" font-weight="bold"><tspan y="-1092" x="-3938.312">D</tspan></text>
<text fill="#3e8ab0" xml:space="preserve" transform="matrix(1.45 0 0 1.45 5901.5 1606.6001)" font-size="16" font-family="RescueW01" font-weight="bold"><tspan y="-1092" x="-3915.788">E</tspan></text>
<path transform="matrix(1,0,0,-1,0,78.3)" d="M1.45 36.55039H242.15V44.960359H1.45Z" fill="#3e8ab0"/>
<text fill="#3e8ab0" xml:space="preserve" transform="matrix(1.45 0 0 1.45 5901.5 1606.6001)" font-size="15" font-family="Avenir"><tspan y="-1064.107" x="-4064.6 -4055.435 -4050.725 -4042.385 -4029.605 -4026.005 -4017.6649 -4004.8848 -4000.7149 -3991.5499 -3983.765 -3978.785 -3971 -3966.83 -3960.4403 -3951.5452 -3947.945 -3939.605 -3934.625 -3931.025 -3922.13 -3913.7899">premium data solutions</tspan></text>
</g>
</svg>
