<svg xmlns="http://www.w3.org/2000/svg" class="h-logo__icon" viewBox="0 0 253.989 44.283"><g fill="#092B13"><path d="m133.329 28.334a11.306 11.306 0 0 0 -4.356-3.5 13.641 13.641 0 0 0 -5.993-1.342 16.048 16.048 0 0 0 -8.547 2.227 14.8 14.8 0 0 0 -5.6 6.19 20.148 20.148 0 0 0 -1.964 9.07 20.659 20.659 0 0 0 1.932 9.1 14.44 14.44 0 0 0 5.6 6.221 16.468 16.468 0 0 0 8.712 2.227 13.689 13.689 0 0 0 6.221-1.409 8.988 8.988 0 0 0 3.994-3.5v4.382h7.138v-33.991h-7.138v4.321zm-.72 18.6a9.484 9.484 0 0 1 -3.471 3.963 9.336 9.336 0 0 1 -5.108 1.409 9.565 9.565 0 0 1 -5.175-1.409 9.21 9.21 0 0 1 -3.439-3.994 13.829 13.829 0 0 1 -1.212-5.926 13.566 13.566 0 0 1 1.212-5.895 9.233 9.233 0 0 1 3.439-3.963 9.485 9.485 0 0 1 5.175-1.409 9.224 9.224 0 0 1 5.108 1.409 9.484 9.484 0 0 1 3.471 3.963 13.293 13.293 0 0 1 1.243 5.895 13.647 13.647 0 0 1 -1.243 5.962z" transform="translate(-64.813 -14.249)"/><path d="m369.109 25.749a17.861 17.861 0 0 0 -17.617.13 15.168 15.168 0 0 0 -5.631 6.387 20.021 20.021 0 0 0 -1.9 8.712 19.181 19.181 0 0 0 2 8.712 15.9 15.9 0 0 0 5.8 6.418 16.3 16.3 0 0 0 8.972 2.424 19.445 19.445 0 0 0 7.366-1.342 13.283 13.283 0 0 0 5.434-3.963 13.034 13.034 0 0 0 2.719-6.221h-7.008a6.245 6.245 0 0 1 -2.854 3.994 9.967 9.967 0 0 1 -5.47 1.44 9.149 9.149 0 0 1 -7.268-3.077 11.513 11.513 0 0 1 -2.6-6.682h25.263q.13-1.635.13-2.88a17.13 17.13 0 0 0 -1.8-8.055 14.628 14.628 0 0 0 -5.533-5.993zm-17.774 11.3a13.241 13.241 0 0 1 .748-2.455 8.805 8.805 0 0 1 3.242-4.061 9 9 0 0 1 5.076-1.409 8.768 8.768 0 0 1 4.321 1.015 7.239 7.239 0 0 1 2.849 2.817 9.947 9.947 0 0 1 1.212 4.092h-17.449z" transform="translate(-208.608 -14.249)"/><path d="m456.942 41.139a16.562 16.562 0 0 0 -7.268-3.242l-5.631-1.243a6.165 6.165 0 0 1 -2.947-1.342 2.942 2.942 0 0 1 -1.047-2.259 3.17 3.17 0 0 1 1.44-2.719 6.462 6.462 0 0 1 3.8-1.015 7.61 7.61 0 0 1 4.419 1.279 4.707 4.707 0 0 1 2.129 3.439h7.008a11.121 11.121 0 0 0 -2.259-5.6 12.1 12.1 0 0 0 -4.781-3.667 16.1 16.1 0 0 0 -6.516-1.279 15.661 15.661 0 0 0 -6.485 1.279 10.541 10.541 0 0 0 -4.356 3.439 8.152 8.152 0 0 0 -1.539 4.848q0 4.386 2.585 6.646a15.57 15.57 0 0 0 6.91 3.242l5.631 1.31a7.025 7.025 0 0 1 3.113 1.409 3.269 3.269 0 0 1 1.082 2.585 3.475 3.475 0 0 1 -1.735 2.947 9.022 9.022 0 0 1 -9.826-.586 5.674 5.674 0 0 1 -2.259-4.128h-7.01a11.6 11.6 0 0 0 2 6.221 12.473 12.473 0 0 0 5.108 4.289 17.12 17.12 0 0 0 7.433 1.539 16.742 16.742 0 0 0 7.071-1.377 11.45 11.45 0 0 0 4.781-3.766 9 9 0 0 0 1.7-5.336q0-4.716-2.554-6.91z" transform="translate(-261.64 -14.249)"/><path d="m526.134 15.794v-6.025h-8.252v-9.577a.187.187 0 0 0 -.338-.11c-1.566 2.172-6.8 9.688-6.8 9.688h-6.024v6.024h6.025v17.684q0 5.306 3.014 8.055t8.252 2.751a16.443 16.443 0 0 0 4.128-.523v-6.222a12.413 12.413 0 0 1 -3.4.523 4.725 4.725 0 0 1 -3.539-1.342 5.258 5.258 0 0 1 -1.31-3.833v-17.093h8.252z" transform="translate(-306.108 -.005)"/><path d="m30.726 38.545h-20.143v-14h-10.593a9.157 9.157 0 0 1 1.609.83 3.961 3.961 0 0 1 1.381 3.368v30.425h7.6v-13.875h20.138v13.875h7.532v-34.628h-7.532v14.009z" transform="translate(.01 -14.886)"/><path d="m260.844 25.4a4.078 4.078 0 0 0 -4.116-2.369 4.23 4.23 0 0 0 -3.833 3.014 6.694 6.694 0 0 0 -.031 3.392 20.354 20.354 0 0 1 -2.764 14.663 38.674 38.674 0 0 1 -6.823 8 .56.56 0 0 1 -.185.063c-.047-.224-.091-.437-.134-.649q-1.541-8.039-3.077-16.078c-.39-2.046-.791-4.088-1.133-6.143a5.786 5.786 0 0 1 .232-1.912 5.336 5.336 0 0 1 4.643-3.675 4.114 4.114 0 0 0 .425-.094c-.008-.039-.016-.083-.024-.122h-16.97v-.1a11.9 11.9 0 0 0 -2.487-.2 11.194 11.194 0 0 0 -6.288 2 10.645 10.645 0 0 0 -4.191 5.009v-6.485h-7.138v33.986h7.138v-12.7a23.941 23.941 0 0 1 1.31-8.48 11.151 11.151 0 0 1 3.471-5.076 7.74 7.74 0 0 1 4.781-1.637 13.961 13.961 0 0 1 3.408.393v-5.258c.173.13.338.264.5.405 1.688 1.436 3.829 3.246 4.313 4.923q2.529 13.292 5.029 26.593c.165.87.59 1.035 1.255.453 3.227-2.833 6.508-5.607 9.645-8.539a70.547 70.547 0 0 0 9.586-10.841 23.864 23.864 0 0 0 3.785-7.319 6.5 6.5 0 0 0 -.319-5.214z" transform="translate(-125.511 -13.954)"/><path d="m304.067 21.142-.047-.012v.138h.039c0-.043.008-.083.012-.126z" transform="translate(-184.384 -12.818)"/><path d="m620.31 54.691 9.893-4.714v-6.387l-9.893 4.71z" transform="translate(-376.214 -26.44)"/><path d="m621.841 27.532a2.684 2.684 0 0 0 -1.531 2.428v4.687l9.893-4.714v-6.383z" transform="translate(-376.214 -14.285)"/><path d="m620.31 74.737 8.362-3.982a2.684 2.684 0 0 0 1.531-2.428v-4.687l-9.893 4.714v6.387z" transform="translate(-376.214 -38.6)"/><path d="m588.77 49.977 9.893 4.714v-6.391l-9.893-4.71z" transform="translate(-357.085 -26.44)"/><path d="m597.122 27.532-8.362-3.982v6.383l9.893 4.714v-4.687a2.692 2.692 0 0 0 -1.531-2.428z" transform="translate(-357.079 -14.285)"/><path d="m588.77 68.321a2.692 2.692 0 0 0 1.531 2.428l8.362 3.982v-6.387l-9.893-4.714v4.687z" transform="translate(-357.085 -38.594)"/></g></svg>