<?xml version="1.0" encoding="UTF-8" standalone="no"?>
<!DOCTYPE svg PUBLIC "-//W3C//DTD SVG 1.1//EN" "http://www.w3.org/Graphics/SVG/1.1/DTD/svg11.dtd">
<svg width="100%" height="100%" viewBox="0 0 441 253" version="1.1" xmlns="http://www.w3.org/2000/svg" xmlns:xlink="http://www.w3.org/1999/xlink" xml:space="preserve" xmlns:serif="http://www.serif.com/" style="fill-rule:evenodd;clip-rule:evenodd;stroke-linejoin:round;stroke-miterlimit:2;">
    <g transform="matrix(4.16667,0,0,4.16667,243.478,172.785)">
        <path d="M0,11.623C-0.108,11.731 -0.249,11.785 -0.45,11.811C-0.649,11.838 -0.909,11.838 -1.255,11.838L-9.78,11.838C-10.349,11.838 -10.684,11.838 -10.905,11.719C-10.953,11.693 -10.996,11.662 -11.035,11.623C-11.111,11.547 -11.16,11.455 -11.191,11.338C-11.204,11.29 -11.214,11.237 -11.222,11.179C-11.25,10.978 -11.25,10.717 -11.25,10.368L-11.25,5.665C-11.25,5.326 -11.25,5.071 -11.225,4.872C-11.199,4.665 -11.145,4.52 -11.035,4.41C-10.819,4.195 -10.473,4.195 -9.78,4.195L0.215,4.195L0.215,10.368C0.215,10.547 0.215,10.703 0.211,10.839C0.21,10.911 0.207,10.977 0.202,11.039C0.182,11.314 0.13,11.493 0,11.623M0.218,-1.584C0.216,-1.553 0.216,-1.519 0.215,-1.48L0.215,1.108C0.215,1.246 0.215,1.316 0.172,1.359C0.161,1.369 0.149,1.377 0.135,1.383C0.121,1.389 0.104,1.393 0.084,1.396C0.067,1.399 0.048,1.4 0.026,1.401L-0.079,1.402L-10.515,1.402C-12.594,1.402 -13.633,1.402 -14.279,2.048C-14.925,2.693 -14.925,3.733 -14.925,5.812L-14.925,10.221C-14.925,12.3 -14.925,13.34 -14.279,13.985C-13.633,14.631 -12.594,14.631 -10.515,14.631L3.89,14.631L3.89,-3.008L0.622,-1.949C0.426,-1.885 0.328,-1.854 0.272,-1.776C0.26,-1.761 0.251,-1.744 0.243,-1.725C0.229,-1.687 0.222,-1.642 0.218,-1.584" style="fill:gray;"/>
    </g>
    <g transform="matrix(4.16667,0,0,4.16667,335.02,200.674)">
        <path d="M0,2.646L-10.395,2.646C-10.523,2.647 -10.63,2.649 -10.723,2.655C-10.783,2.659 -10.836,2.665 -10.885,2.673C-10.976,2.689 -11.05,2.714 -11.114,2.754C-11.213,2.815 -11.297,2.898 -11.357,2.997C-11.465,3.174 -11.465,3.414 -11.465,3.895C-11.465,4.377 -11.465,4.617 -11.357,4.794C-11.331,4.836 -11.301,4.876 -11.267,4.912C-11.223,4.96 -11.171,5.002 -11.114,5.037C-11.027,5.09 -10.923,5.117 -10.782,5.131C-10.734,5.136 -10.682,5.139 -10.624,5.141L-10.495,5.144C-10.412,5.145 -10.319,5.145 -10.216,5.145L-1.47,5.145C-0.777,5.145 -0.431,5.145 -0.215,4.93C-0.126,4.84 -0.074,4.729 -0.044,4.579C0,4.368 0,4.081 0,3.675L0,2.646ZM-10.73,7.938C-12.809,7.938 -13.849,7.938 -14.494,7.292C-15.14,6.646 -15.14,5.607 -15.14,3.528L-15.14,2.058C-15.14,1.088 -15.14,0.603 -14.839,0.301C-14.537,0 -14.053,0 -13.082,0L-0.294,0C-0.248,0 -0.209,0 -0.177,-0.001L-0.135,-0.005C-0.12,-0.007 -0.107,-0.01 -0.095,-0.013C-0.083,-0.017 -0.073,-0.021 -0.064,-0.027C-0.056,-0.031 -0.049,-0.037 -0.043,-0.043C0,-0.086 0,-0.155 0,-0.294L0,-1.029C0,-1.722 0,-2.068 -0.215,-2.283C-0.431,-2.499 -0.777,-2.499 -1.47,-2.499L-15.14,-2.499L-15.14,-5.292L-0.735,-5.292C1.344,-5.292 2.383,-5.292 3.029,-4.646C3.675,-4 3.675,-2.961 3.675,-0.882L3.675,7.938L-10.73,7.938Z" style="fill:gray;"/>
    </g>
    <g transform="matrix(4.16667,0,0,4.16667,384.017,240.484)">
        <path d="M0,-12.053C-0.139,-12.053 -0.264,-12.053 -0.377,-12.051C-0.689,-12.047 -0.907,-12.028 -1.069,-11.961C-1.106,-11.945 -1.14,-11.927 -1.171,-11.906C-1.201,-11.886 -1.229,-11.863 -1.255,-11.838C-1.315,-11.777 -1.358,-11.706 -1.389,-11.62C-1.421,-11.533 -1.44,-11.432 -1.452,-11.31C-1.47,-11.122 -1.47,-10.885 -1.47,-10.583L-1.47,-4.409L8.526,-4.409C9.219,-4.409 9.565,-4.409 9.78,-4.625C9.873,-4.717 9.925,-4.834 9.955,-4.992C9.995,-5.201 9.995,-5.484 9.995,-5.879L9.995,-10.583C9.995,-10.747 9.995,-10.891 9.992,-11.019C9.986,-11.297 9.967,-11.497 9.905,-11.648C9.874,-11.722 9.834,-11.784 9.78,-11.838C9.681,-11.937 9.554,-11.99 9.378,-12.019C9.172,-12.053 8.899,-12.053 8.526,-12.053L0,-12.053ZM-1.492,1.491C-1.5,1.517 -1.511,1.541 -1.526,1.562C-1.583,1.639 -1.681,1.671 -1.876,1.734L-5.145,2.793L-5.145,-14.846L9.26,-14.846C11.339,-14.846 12.379,-14.846 13.024,-14.2C13.67,-13.554 13.67,-12.515 13.67,-10.436L13.67,-6.026C13.67,-3.947 13.67,-2.908 13.024,-2.262C12.693,-1.932 12.259,-1.77 11.635,-1.692C11.272,-1.646 10.845,-1.628 10.338,-1.621C10.013,-1.617 9.656,-1.617 9.26,-1.617L-1.176,-1.617C-1.314,-1.617 -1.384,-1.617 -1.427,-1.574C-1.47,-1.53 -1.47,-1.461 -1.47,-1.323L-1.47,1.175L-1.471,1.274C-1.471,1.339 -1.473,1.391 -1.48,1.435C-1.483,1.456 -1.487,1.474 -1.492,1.491" style="fill:gray;"/>
    </g>
    <g transform="matrix(4.16667,0,0,4.16667,105.958,211.7)">
        <path d="M0,-2.646L10.216,-2.646C10.697,-2.646 10.938,-2.646 11.114,-2.754C11.159,-2.782 11.2,-2.814 11.237,-2.849C11.283,-2.893 11.323,-2.943 11.357,-2.997C11.465,-3.174 11.465,-3.414 11.465,-3.895C11.465,-4.149 11.465,-4.336 11.449,-4.482C11.435,-4.613 11.408,-4.71 11.357,-4.794C11.337,-4.827 11.314,-4.858 11.29,-4.887C11.24,-4.945 11.18,-4.996 11.114,-5.037C11.035,-5.085 10.943,-5.112 10.822,-5.127C10.673,-5.145 10.481,-5.145 10.216,-5.145L1.47,-5.145C0.777,-5.145 0.431,-5.145 0.215,-4.93C0,-4.714 0,-4.368 0,-3.675L0,-2.646ZM10.73,-7.938C12.809,-7.938 13.849,-7.938 14.494,-7.292C15.14,-6.646 15.14,-5.607 15.14,-3.528L15.14,-2.058C15.14,-1.088 15.14,-0.603 14.839,-0.301C14.711,-0.174 14.55,-0.1 14.333,-0.058C14.038,-0 13.64,-0 13.082,-0L0.294,-0C0.156,-0 0.086,-0 0.043,0.043C0.022,0.064 0.011,0.092 0.006,0.132C0,0.173 0,0.224 0,0.294L0,1.029C0,1.722 0,2.068 0.215,2.283C0.431,2.499 0.777,2.499 1.47,2.499L15.14,2.499L15.14,5.292L0.735,5.292C-1.344,5.292 -2.383,5.292 -3.029,4.646C-3.675,4 -3.675,2.961 -3.675,0.882L-3.675,-3.528C-3.675,-5.607 -3.675,-6.646 -3.029,-7.292C-2.383,-7.938 -1.344,-7.938 0.735,-7.938L10.73,-7.938Z" style="fill:gray;"/>
    </g>
    <g transform="matrix(4.16667,0,0,4.16667,74.45,229.801)">
        <path d="M0,-11.335C-0.947,-12.282 -2.471,-12.282 -5.52,-12.282L-17.868,-12.282L-17.868,0.947L-14.193,0.947L-14.193,-8.019C-14.193,-8.712 -14.193,-9.059 -13.977,-9.274C-13.762,-9.489 -13.416,-9.489 -12.723,-9.489L-5.667,-9.489C-4.281,-9.489 -3.589,-9.489 -3.158,-9.059C-2.727,-8.628 -2.727,-7.935 -2.727,-6.549L-2.727,0.947L0.947,0.947L0.947,-5.814C0.947,-8.863 0.947,-10.388 0,-11.335" style="fill:gray;fill-rule:nonzero;"/>
    </g>
    <g transform="matrix(4.16667,0,0,4.16667,226.695,0)">
        <path d="M0,10.233C0.705,10.233 1.058,10.233 1.254,10.007C1.451,9.781 1.401,9.432 1.302,8.734L0.22,1.13C0.143,0.592 0.105,0.322 -0.079,0.162C-0.265,0 -0.536,0 -1.08,0L-1.897,0C-2.441,0 -2.713,0 -2.898,0.162C-3.083,0.323 -3.122,0.592 -3.197,1.13L-4.281,8.734C-4.38,9.432 -4.43,9.781 -4.233,10.007C-4.037,10.233 -3.684,10.233 -2.979,10.233L0,10.233Z" style="fill:gray;fill-rule:nonzero;"/>
    </g>
    <g transform="matrix(4.16667,0,0,4.16667,199.357,57.2679)">
        <path d="M0,-0.909C0.219,-1.579 0.327,-1.914 0.173,-2.171C0.018,-2.428 -0.329,-2.488 -1.023,-2.61L-8.591,-3.932C-9.127,-4.025 -9.395,-4.071 -9.605,-3.947C-9.814,-3.82 -9.899,-3.561 -10.068,-3.045L-10.319,-2.266C-10.488,-1.748 -10.571,-1.491 -10.475,-1.265C-10.38,-1.039 -10.135,-0.92 -9.647,-0.681L-2.749,2.698C-2.116,3.008 -1.8,3.162 -1.524,3.045C-1.249,2.927 -1.139,2.593 -0.922,1.923L0,-0.909Z" style="fill:gray;fill-rule:nonzero;"/>
    </g>
    <g transform="matrix(4.16667,0,0,4.16667,201.221,121.384)">
        <path d="M0,-9.252C-0.569,-9.667 -0.856,-9.873 -1.148,-9.805C-1.44,-9.737 -1.605,-9.426 -1.934,-8.802L-5.53,-2.016C-5.785,-1.535 -5.912,-1.295 -5.856,-1.056C-5.801,-0.817 -5.581,-0.657 -5.14,-0.338L-4.479,0.141C-4.038,0.461 -3.82,0.621 -3.576,0.601C-3.331,0.579 -3.142,0.384 -2.764,-0.007L2.58,-5.524C3.071,-6.031 3.315,-6.282 3.289,-6.582C3.264,-6.881 2.979,-7.087 2.408,-7.502L0,-9.252Z" style="fill:gray;fill-rule:nonzero;"/>
    </g>
    <g transform="matrix(4.16667,0,0,4.16667,229.7,114.109)">
        <path d="M0,-5.754C-0.569,-5.339 -0.856,-5.133 -0.882,-4.834C-0.907,-4.535 -0.663,-4.283 -0.173,-3.776L5.172,1.741C5.55,2.132 5.739,2.326 5.983,2.348C6.228,2.371 6.448,2.211 6.887,1.889L7.548,1.41C7.989,1.09 8.207,0.931 8.264,0.692C8.321,0.453 8.193,0.213 7.937,-0.269L4.345,-7.056C4.015,-7.679 3.851,-7.991 3.559,-8.057C3.267,-8.125 2.982,-7.917 2.411,-7.504L0,-5.754Z" style="fill:gray;fill-rule:nonzero;"/>
    </g>
    <g transform="matrix(4.16667,0,0,4.16667,245.462,45.4783)">
        <path d="M0,4.756C0.219,5.426 0.327,5.761 0.602,5.878C0.878,5.996 1.196,5.839 1.827,5.529L8.725,2.15C9.214,1.911 9.458,1.792 9.553,1.566C9.649,1.34 9.564,1.081 9.397,0.565L9.146,-0.212C8.977,-0.73 8.894,-0.987 8.683,-1.113C8.473,-1.24 8.205,-1.192 7.669,-1.099L0.103,0.224C-0.591,0.345 -0.938,0.405 -1.093,0.662C-1.247,0.92 -1.139,1.254 -0.92,1.924L0,4.756Z" style="fill:gray;fill-rule:nonzero;"/>
    </g>
</svg>
